<svg width="281" height="42" viewBox="0 0 281 42" fill="none" xmlns="http://www.w3.org/2000/svg">
<path d="M45.0597 34.2983C43.8416 34.2983 42.7644 34.0994 41.8281 33.7017C40.9001 33.2957 40.1709 32.6825 39.6406 31.8622C39.1103 31.0419 38.8452 29.9979 38.8452 28.7301C38.8452 27.6861 39.0233 26.7953 39.3796 26.0579C39.7359 25.3121 40.2331 24.7031 40.8711 24.2308C41.5091 23.7585 42.2507 23.3981 43.0959 23.1495C43.9493 22.9009 44.8691 22.7393 45.8551 22.6648C46.924 22.5819 47.7816 22.4825 48.4279 22.3665C49.0825 22.2422 49.5548 22.0723 49.8448 21.8569C50.1348 21.6332 50.2798 21.339 50.2798 20.9744V20.9247C50.2798 20.4276 50.0893 20.0464 49.7081 19.7812C49.3269 19.5161 48.8381 19.3835 48.2415 19.3835C47.5869 19.3835 47.0524 19.5285 46.6381 19.8185C46.2321 20.1003 45.9877 20.5353 45.9048 21.1236H39.5909C39.6738 19.9635 40.0425 18.8946 40.6971 17.9169C41.36 16.9309 42.3253 16.1437 43.593 15.5554C44.8608 14.9588 46.4434 14.6605 48.3409 14.6605C49.7081 14.6605 50.9344 14.8221 52.0199 15.1452C53.1054 15.4601 54.0292 15.9034 54.7915 16.4751C55.5539 17.0386 56.1339 17.7015 56.5316 18.4638C56.9376 19.2178 57.1406 20.0381 57.1406 20.9247V34H50.7273V31.3153H50.5781C50.197 32.0279 49.733 32.6038 49.1861 33.043C48.6475 33.4821 48.0302 33.8011 47.3342 34C46.6464 34.1989 45.8883 34.2983 45.0597 34.2983ZM47.2969 29.973C47.8189 29.973 48.3078 29.8653 48.7635 29.6499C49.2275 29.4344 49.6045 29.1237 49.8945 28.7177C50.1845 28.3117 50.3295 27.8187 50.3295 27.2386V25.6477C50.1473 25.7223 49.9525 25.7927 49.7454 25.859C49.5465 25.9253 49.3311 25.9875 49.0991 26.0455C48.8754 26.1035 48.6351 26.1573 48.3782 26.207C48.1296 26.2567 47.8686 26.3023 47.5952 26.3438C47.0649 26.4266 46.6299 26.5633 46.2901 26.7539C45.9587 26.9362 45.7101 27.1641 45.5444 27.4375C45.387 27.7027 45.3082 28.0009 45.3082 28.3324C45.3082 28.8627 45.4947 29.2687 45.8675 29.5504C46.2404 29.8321 46.7169 29.973 47.2969 29.973ZM69.6162 41.5568C67.7021 41.5568 66.0615 41.2834 64.6943 40.7365C63.3354 40.1979 62.279 39.4522 61.5249 38.4993C60.7792 37.5547 60.3608 36.4692 60.2696 35.2429H66.8818C66.9481 35.6489 67.1138 35.9762 67.379 36.2248C67.6441 36.4734 67.9839 36.6515 68.3982 36.7592C68.8208 36.8752 69.2931 36.9332 69.8151 36.9332C70.7017 36.9332 71.435 36.7178 72.015 36.2869C72.6033 35.8561 72.8975 35.0772 72.8975 33.9503V30.7188H72.6986C72.45 31.3651 72.0689 31.9161 71.5551 32.3718C71.0414 32.8192 70.4241 33.1631 69.7032 33.4034C68.9823 33.6354 68.191 33.7514 67.3293 33.7514C65.9704 33.7514 64.7192 33.4366 63.5757 32.8068C62.4405 32.1771 61.5291 31.1786 60.8414 29.8114C60.1619 28.4442 59.8222 26.6586 59.8222 24.4545C59.8222 22.151 60.1785 20.2784 60.8911 18.8366C61.6119 17.3949 62.54 16.3384 63.6752 15.6673C64.8186 14.9961 66.0201 14.6605 67.2796 14.6605C68.2242 14.6605 69.0528 14.8262 69.7654 15.1577C70.478 15.4808 71.0745 15.9158 71.5551 16.4627C72.0357 17.0013 72.4003 17.5937 72.6489 18.2401H72.798V14.9091H79.6588V33.9503C79.6588 35.5661 79.2404 36.9374 78.4035 38.0643C77.5749 39.1995 76.4066 40.0653 74.8985 40.6619C73.3905 41.2585 71.6297 41.5568 69.6162 41.5568ZM69.8648 28.8793C70.4945 28.8793 71.0331 28.7053 71.4806 28.3572C71.9363 28.0009 72.2843 27.4955 72.5246 26.8409C72.7732 26.178 72.8975 25.3826 72.8975 24.4545C72.8975 23.5099 72.7732 22.7021 72.5246 22.0309C72.2843 21.3514 71.9363 20.8336 71.4806 20.4773C71.0331 20.1127 70.4945 19.9304 69.8648 19.9304C69.2351 19.9304 68.6965 20.1127 68.249 20.4773C67.8099 20.8336 67.4701 21.3514 67.2298 22.0309C66.9978 22.7021 66.8818 23.5099 66.8818 24.4545C66.8818 25.3991 66.9978 26.2029 67.2298 26.8658C67.4701 27.5204 67.8099 28.0217 68.249 28.3697C68.6965 28.7094 69.2351 28.8793 69.8648 28.8793ZM92.296 34.348C90.2576 34.348 88.501 33.9586 87.0261 33.1797C85.5595 32.3925 84.4284 31.2656 83.633 29.799C82.8458 28.3241 82.4522 26.5592 82.4522 24.5043C82.4522 22.5322 82.85 20.8087 83.6454 19.3338C84.4409 17.8589 85.5636 16.7113 87.0137 15.891C88.4637 15.0707 90.1748 14.6605 92.1468 14.6605C93.5886 14.6605 94.8936 14.8842 96.062 15.3317C97.2303 15.7791 98.2288 16.4296 99.0574 17.283C99.8859 18.1282 100.524 19.1557 100.971 20.3654C101.419 21.5752 101.643 22.9382 101.643 24.4545V26.0455H84.59V22.267H95.3287C95.3204 21.7202 95.1795 21.2396 94.9061 20.8253C94.6409 20.4027 94.2805 20.0754 93.8248 19.8434C93.3773 19.6031 92.8677 19.483 92.296 19.483C91.7408 19.483 91.2312 19.6031 90.7672 19.8434C90.3032 20.0754 89.9303 20.3986 89.6486 20.8129C89.3752 21.2272 89.2302 21.7119 89.2136 22.267V26.3438C89.2136 26.9569 89.342 27.5038 89.5989 27.9844C89.8558 28.465 90.2245 28.842 90.7051 29.1154C91.1857 29.3888 91.7657 29.5256 92.4451 29.5256C92.9174 29.5256 93.3483 29.4593 93.7377 29.3267C94.1355 29.1941 94.4752 29.0036 94.7569 28.755C95.0386 28.4981 95.2458 28.1915 95.3784 27.8352H101.643C101.427 29.161 100.918 30.3127 100.114 31.2905C99.3101 32.2599 98.2453 33.014 96.9196 33.5526C95.6021 34.0829 94.0609 34.348 92.296 34.348ZM111.303 23.2614V34H104.442V14.9091H110.955V18.5384H111.154C111.568 17.3286 112.297 16.3799 113.341 15.6921C114.394 15.0044 115.62 14.6605 117.02 14.6605C118.371 14.6605 119.543 14.9712 120.538 15.5927C121.54 16.2058 122.315 17.051 122.862 18.1282C123.417 19.2054 123.691 20.4358 123.682 21.8196V34H116.821V23.2614C116.83 22.3168 116.589 21.5752 116.101 21.0366C115.62 20.498 114.949 20.2287 114.087 20.2287C113.524 20.2287 113.031 20.353 112.608 20.6016C112.194 20.8419 111.875 21.1899 111.651 21.6456C111.427 22.093 111.311 22.6316 111.303 23.2614ZM133.98 34.2486C132.621 34.2486 131.37 33.8923 130.226 33.1797C129.091 32.4671 128.179 31.3858 127.492 29.9357C126.812 28.4857 126.473 26.6586 126.473 24.4545C126.473 22.151 126.829 20.2784 127.541 18.8366C128.262 17.3949 129.19 16.3384 130.326 15.6673C131.469 14.9961 132.67 14.6605 133.93 14.6605C134.875 14.6605 135.703 14.8262 136.416 15.1577C137.128 15.4808 137.725 15.9158 138.206 16.4627C138.686 17.0013 139.051 17.5937 139.299 18.2401H139.399V8.54545H146.259V34H139.448V30.8679H139.299C139.034 31.5142 138.653 32.0942 138.156 32.608C137.667 33.1134 137.07 33.5153 136.366 33.8136C135.67 34.1036 134.875 34.2486 133.98 34.2486ZM136.515 28.9787C137.145 28.9787 137.684 28.7964 138.131 28.4318C138.587 28.0589 138.935 27.5369 139.175 26.8658C139.424 26.1863 139.548 25.3826 139.548 24.4545C139.548 23.5099 139.424 22.7021 139.175 22.0309C138.935 21.3514 138.587 20.8336 138.131 20.4773C137.684 20.1127 137.145 19.9304 136.515 19.9304C135.885 19.9304 135.347 20.1127 134.899 20.4773C134.46 20.8336 134.121 21.3514 133.88 22.0309C133.648 22.7021 133.532 23.5099 133.532 24.4545C133.532 25.3991 133.648 26.2112 133.88 26.8906C134.121 27.5618 134.46 28.0797 134.899 28.4442C135.347 28.8005 135.885 28.9787 136.515 28.9787ZM154.947 34.2983C153.729 34.2983 152.652 34.0994 151.716 33.7017C150.788 33.2957 150.059 32.6825 149.528 31.8622C148.998 31.0419 148.733 29.9979 148.733 28.7301C148.733 27.6861 148.911 26.7953 149.267 26.0579C149.624 25.3121 150.121 24.7031 150.759 24.2308C151.397 23.7585 152.138 23.3981 152.984 23.1495C153.837 22.9009 154.757 22.7393 155.743 22.6648C156.812 22.5819 157.669 22.4825 158.316 22.3665C158.97 22.2422 159.443 22.0723 159.733 21.8569C160.023 21.6332 160.168 21.339 160.168 20.9744V20.9247C160.168 20.4276 159.977 20.0464 159.596 19.7812C159.215 19.5161 158.726 19.3835 158.129 19.3835C157.475 19.3835 156.94 19.5285 156.526 19.8185C156.12 20.1003 155.875 20.5353 155.793 21.1236H149.479C149.561 19.9635 149.93 18.8946 150.585 17.9169C151.248 16.9309 152.213 16.1437 153.481 15.5554C154.748 14.9588 156.331 14.6605 158.229 14.6605C159.596 14.6605 160.822 14.8221 161.908 15.1452C162.993 15.4601 163.917 15.9034 164.679 16.4751C165.442 17.0386 166.022 17.7015 166.419 18.4638C166.825 19.2178 167.028 20.0381 167.028 20.9247V34H160.615V31.3153H160.466C160.085 32.0279 159.621 32.6038 159.074 33.043C158.535 33.4821 157.918 33.8011 157.222 34C156.534 34.1989 155.776 34.2983 154.947 34.2983ZM157.185 29.973C157.707 29.973 158.195 29.8653 158.651 29.6499C159.115 29.4344 159.492 29.1237 159.782 28.7177C160.072 28.3117 160.217 27.8187 160.217 27.2386V25.6477C160.035 25.7223 159.84 25.7927 159.633 25.859C159.434 25.9253 159.219 25.9875 158.987 26.0455C158.763 26.1035 158.523 26.1573 158.266 26.207C158.017 26.2567 157.756 26.3023 157.483 26.3438C156.953 26.4266 156.518 26.5633 156.178 26.7539C155.846 26.9362 155.598 27.1641 155.432 27.4375C155.275 27.7027 155.196 28.0009 155.196 28.3324C155.196 28.8627 155.382 29.2687 155.755 29.5504C156.128 29.8321 156.605 29.973 157.185 29.973Z" fill="#8284FA"/>
<path d="M170.306 34V14.9091H176.819V18.5384H177.018C177.416 17.3452 178.095 16.4006 179.056 15.7045C180.018 15.0085 181.161 14.6605 182.487 14.6605C183.829 14.6605 184.985 15.0168 185.955 15.7294C186.924 16.4337 187.508 17.37 187.707 18.5384H187.906C188.229 17.37 188.917 16.4337 189.969 15.7294C191.021 15.0168 192.256 14.6605 193.673 14.6605C195.504 14.6605 196.987 15.2488 198.123 16.4254C199.266 17.602 199.838 19.1681 199.838 21.1236V34H192.977V22.8636C192.977 22.0268 192.766 21.3722 192.343 20.8999C191.92 20.4193 191.353 20.179 190.64 20.179C189.936 20.179 189.377 20.4193 188.962 20.8999C188.556 21.3722 188.353 22.0268 188.353 22.8636V34H181.791V22.8636C181.791 22.0268 181.58 21.3722 181.157 20.8999C180.734 20.4193 180.167 20.179 179.454 20.179C178.982 20.179 178.576 20.2867 178.236 20.5021C177.896 20.7176 177.631 21.0283 177.441 21.4343C177.258 21.832 177.167 22.3085 177.167 22.8636V34H170.306ZM212.369 34.348C210.331 34.348 208.574 33.9586 207.099 33.1797C205.633 32.3925 204.502 31.2656 203.706 29.799C202.919 28.3241 202.525 26.5592 202.525 24.5043C202.525 22.5322 202.923 20.8087 203.719 19.3338C204.514 17.8589 205.637 16.7113 207.087 15.891C208.537 15.0707 210.248 14.6605 212.22 14.6605C213.662 14.6605 214.967 14.8842 216.135 15.3317C217.304 15.7791 218.302 16.4296 219.131 17.283C219.959 18.1282 220.597 19.1557 221.045 20.3654C221.492 21.5752 221.716 22.9382 221.716 24.4545V26.0455H204.663V22.267H215.402C215.394 21.7202 215.253 21.2396 214.979 20.8253C214.714 20.4027 214.354 20.0754 213.898 19.8434C213.451 19.6031 212.941 19.483 212.369 19.483C211.814 19.483 211.304 19.6031 210.84 19.8434C210.376 20.0754 210.004 20.3986 209.722 20.8129C209.448 21.2272 209.303 21.7119 209.287 22.267V26.3438C209.287 26.9569 209.415 27.5038 209.672 27.9844C209.929 28.465 210.298 28.842 210.778 29.1154C211.259 29.3888 211.839 29.5256 212.518 29.5256C212.991 29.5256 213.422 29.4593 213.811 29.3267C214.209 29.1941 214.548 29.0036 214.83 28.755C215.112 28.4981 215.319 28.1915 215.452 27.8352H221.716C221.5 29.161 220.991 30.3127 220.187 31.2905C219.383 32.2599 218.319 33.014 216.993 33.5526C215.675 34.0829 214.134 34.348 212.369 34.348ZM231.376 23.2614V34H224.515V14.9091H231.028V18.5384H231.227C231.641 17.3286 232.371 16.3799 233.415 15.6921C234.467 15.0044 235.693 14.6605 237.094 14.6605C238.444 14.6605 239.617 14.9712 240.611 15.5927C241.614 16.2058 242.388 17.051 242.935 18.1282C243.49 19.2054 243.764 20.4358 243.756 21.8196V34H236.895V23.2614C236.903 22.3168 236.663 21.5752 236.174 21.0366C235.693 20.498 235.022 20.2287 234.16 20.2287C233.597 20.2287 233.104 20.353 232.681 20.6016C232.267 20.8419 231.948 21.1899 231.724 21.6456C231.501 22.093 231.385 22.6316 231.376 23.2614ZM258.527 14.9091V19.8807H245.949V14.9091H258.527ZM248.385 10.3352H255.246V27.8601C255.246 28.1252 255.292 28.349 255.383 28.5312C255.474 28.7053 255.615 28.8378 255.805 28.929C255.996 29.0118 256.24 29.0533 256.539 29.0533C256.746 29.0533 256.986 29.0284 257.26 28.9787C257.541 28.929 257.748 28.8875 257.881 28.8544L258.875 33.6768C258.569 33.768 258.13 33.8799 257.558 34.0124C256.994 34.145 256.323 34.232 255.544 34.2734C253.97 34.3563 252.648 34.1947 251.58 33.7887C250.511 33.3744 249.707 32.724 249.168 31.8374C248.63 30.9508 248.369 29.8404 248.385 28.5064V10.3352ZM270.27 34.348C268.231 34.348 266.475 33.9586 265 33.1797C263.533 32.3925 262.402 31.2656 261.607 29.799C260.819 28.3241 260.426 26.5592 260.426 24.5043C260.426 22.5322 260.824 20.8087 261.619 19.3338C262.415 17.8589 263.537 16.7113 264.987 15.891C266.437 15.0707 268.148 14.6605 270.12 14.6605C271.562 14.6605 272.867 14.8842 274.036 15.3317C275.204 15.7791 276.202 16.4296 277.031 17.283C277.86 18.1282 278.498 19.1557 278.945 20.3654C279.392 21.5752 279.616 22.9382 279.616 24.4545V26.0455H262.564V22.267H273.302C273.294 21.7202 273.153 21.2396 272.88 20.8253C272.615 20.4027 272.254 20.0754 271.798 19.8434C271.351 19.6031 270.841 19.483 270.27 19.483C269.714 19.483 269.205 19.6031 268.741 19.8434C268.277 20.0754 267.904 20.3986 267.622 20.8129C267.349 21.2272 267.204 21.7119 267.187 22.267V26.3438C267.187 26.9569 267.316 27.5038 267.573 27.9844C267.829 28.465 268.198 28.842 268.679 29.1154C269.159 29.3888 269.739 29.5256 270.419 29.5256C270.891 29.5256 271.322 29.4593 271.711 29.3267C272.109 29.1941 272.449 29.0036 272.731 28.755C273.012 28.4981 273.219 28.1915 273.352 27.8352H279.616C279.401 29.161 278.891 30.3127 278.087 31.2905C277.284 32.2599 276.219 33.014 274.893 33.5526C273.576 34.0829 272.035 34.348 270.27 34.348Z" fill="#4EA8DE"/>
<path d="M6.59949 38.7002H26.3992C30.0285 38.7002 32.9987 35.73 32.9987 32.1008V21.6161C31.952 19.6266 29.7522 18.2403 27.19 18.2403H5.8075C3.24526 18.2403 1.04669 19.6266 0 21.6161V32.1008C0 35.73 2.97028 38.7002 6.59949 38.7002ZM21.053 28.9113C20.4561 28.9113 19.7009 29.0684 18.9127 29.2268C17.9801 29.4891 17.2438 28.9112 17.368 27.9824L17.5049 23.8235C17.5049 22.9099 18.1207 22.5943 18.9102 22.5943H24.0017C25.4742 22.5943 25.4412 24.8056 24.0017 24.8056H19.6984L19.5945 26.9281C22.3481 26.1919 25.6871 27.3678 25.6871 30.5979C25.6871 33.373 23.5278 34.7416 20.8946 34.7416C19.4019 34.7416 18.1207 34.1625 17.3655 32.8965C16.6964 31.6876 18.4363 30.5104 19.208 31.6876C19.6984 32.3022 20.332 32.5848 20.8933 32.5848C22.1554 32.5848 23.3681 32.1261 23.3681 30.5991C23.3707 29.3497 22.1592 28.9113 21.053 28.9113ZM7.68927 32.8256C9.26691 31.1415 10.7584 30.053 12.4615 28.5096C14.0797 27.2462 14.0594 24.7181 11.691 24.7181C10.9371 24.7181 10.1438 25.1731 9.68889 25.8941C8.9856 27.0003 7.14185 26.2616 7.8464 24.6827C8.63586 23.1392 10.1653 22.5234 11.6898 22.5234C15.8487 22.5234 17.4973 26.8052 14.1646 30.053C12.8835 31.1402 12.0053 31.7713 10.7584 32.5088C11.5314 32.5088 12.4615 32.4036 13.2345 32.4036H15.2708C16.6191 32.4036 16.7978 34.6668 15.2708 34.6668H8.45845C7.37248 34.6681 6.93403 33.6163 7.68927 32.8256Z" fill="#5E60CE"/>
<path d="M5.8075 16.9199H27.1912C29.5013 16.9199 31.5732 17.8678 33 19.3605V18.9005C33 15.27 30.0297 12.301 26.4005 12.301H6.59949C2.97028 12.2998 0 15.27 0 18.9005V19.3618C1.42685 17.8678 3.49743 16.9199 5.8075 16.9199ZM22.476 12.8231C23.0387 12.8231 23.4949 13.5112 23.4949 14.3627C23.4949 15.2143 23.0387 15.9036 22.476 15.9036C21.9121 15.9036 21.4534 15.2143 21.4534 14.3627C21.4534 13.5112 21.9121 12.8231 22.476 12.8231ZM18.3944 12.8231C18.9558 12.8231 19.4133 13.5112 19.4133 14.3627C19.4133 15.2143 18.9571 15.9036 18.3944 15.9036C17.8293 15.9036 17.3718 15.2143 17.3718 14.3627C17.3718 13.5112 17.8293 12.8231 18.3944 12.8231ZM14.309 12.8231C14.8742 12.8231 15.3317 13.5112 15.3317 14.3627C15.3317 15.2143 14.8729 15.9036 14.309 15.9036C13.7451 15.9036 13.2902 15.2143 13.2902 14.3627C13.2902 13.5112 13.7464 12.8231 14.309 12.8231ZM10.2274 12.8231C10.7913 12.8231 11.2488 13.5112 11.2488 14.3627C11.2488 15.2143 10.7901 15.9036 10.2274 15.9036C9.66354 15.9036 9.20862 15.2143 9.20862 14.3627C9.20862 13.5112 9.66228 12.8231 10.2274 12.8231Z" fill="#4EA8DE"/>
<rect x="6" y="16" width="2" height="3" rx="1" fill="#5E60CE"/>
<rect x="25" y="16" width="2" height="3" rx="1" fill="#4EA8DE"/>
</svg>
